# xmcd
#
# Track frame offsets:
#	150
#	11255
#	25146
#	36622
#	47456
#	55482
#	64571
#	80844
#	90650
#	104482
#	121222
#	134116
#	147741
#	155486
#	168068
#	187195
#	202400
#	220851
#	238322
#	257188
#	273161
#	291425
#	309742
#
# Disc length: 4356 seconds
#
# Revision: 3
# Processed by: cddbd v1.5.2PL0 Copyright (c) Steve Scherf et al.
# Submitted via: audiograbber 1.83.01
#
DISCID=6c110217
DTITLE=Françoise Hardy - Messages Personnels
DYEAR=2003
DGENRE=Variété Française
TTITLE0=Viens-là
TTITLE1=Ma jeunesse fout le champ
TTITLE2=La terre
TTITLE3=Comment te dire adieu?
TTITLE4=L'heure bleue
TTITLE5=J'ai coupé le téléphone
TTITLE6=Où est-il?
TTITLE7=Loving you
TTITLE8=Träume
TTITLE9=Soleil
TTITLE10=Le crabe
TTITLE11=La question
TTITLE12=Doigts
TTITLE13=Le martien
TTITLE14=Message personnel
TTITLE15=Si c'est vraiment, vraiment vrai
TTITLE16=Que tu m'enterres
TTITLE17=Partir quand même
TTITLE18=Si ça fait mal
TTITLE19=Le danger
TTITLE20=Dix heures en été
TTITLE21=Un peu d'eau
TTITLE22=Puisque vous partez en voyage [Avec J Dutronc]
EXTD=2003
EXTT0=
EXTT1=
EXTT2=
EXTT3=
EXTT4=
EXTT5=
EXTT6=
EXTT7=
EXTT8=
EXTT9=
EXTT10=
EXTT11=
EXTT12=
EXTT13=
EXTT14=
EXTT15=
EXTT16=
EXTT17=
EXTT18=
EXTT19=
EXTT20=
EXTT21=
EXTT22=
PLAYORDER=
